<svg version="1.0" xmlns="http://www.w3.org/2000/svg"
 width="20" height="20" viewBox="0 0 861.000000 1280.000000"
 preserveAspectRatio="xMidYMid meet">
<g transform="translate(0.000000,1280.000000) scale(0.100000,-0.100000)"
fill="#ffffff" stroke="none">
<path d="M3597 12722 c151 -253 255 -530 300 -797 28 -161 23 -453 -10 -625
-79 -410 -268 -811 -615 -1305 -181 -257 -363 -487 -822 -1040 -480 -578 -651
-793 -861 -1082 -490 -674 -804 -1299 -958 -1907 -43 -166 -87 -413 -98 -535
-6 -69 -15 -93 -118 -305 -224 -462 -334 -776 -391 -1121 -28 -167 -26 -493 4
-632 63 -291 186 -528 380 -734 l89 -94 6 -68 c12 -126 78 -226 183 -278 39
-19 65 -24 124 -24 126 0 222 62 282 184 32 66 33 205 1 274 -37 80 -78 123
-150 159 -54 27 -77 32 -132 32 -71 -1 -155 -30 -187 -65 -9 -10 -22 -19 -29
-19 -6 0 -37 30 -69 67 -410 474 -430 1079 -66 1940 24 57 45 101 46 100 2 -2
8 -75 14 -162 19 -300 42 -483 91 -731 208 -1065 763 -1843 1634 -2295 454
-236 951 -374 1595 -445 198 -22 776 -30 952 -14 1171 106 2253 799 3005 1925
314 470 553 1009 687 1543 128 514 157 992 90 1512 -162 1278 -913 2741 -2133
4160 -811 942 -1818 1825 -2656 2327 -82 50 -169 100 -192 112 l-42 21 46 -78z"/>
<path d="M2550 825 c-436 -55 -721 -196 -720 -357 1 -116 169 -231 437 -299
210 -53 313 -64 603 -64 290 0 395 12 606 65 514 129 579 399 136 560 -204 74
-380 100 -702 105 -173 3 -279 0 -360 -10z"/>
<path d="M6250 754 c-272 -23 -426 -52 -584 -108 -168 -60 -271 -138 -297
-225 -71 -237 552 -447 1196 -402 462 32 794 151 861 308 77 181 -230 360
-709 412 -107 12 -395 21 -467 15z"/>
</g>
</svg>
