<svg version="1.0" xmlns="http://www.w3.org/2000/svg"
     width="35" height="35" viewBox="0 0 1121.000000 1280.000000"
 preserveAspectRatio="xMidYMid meet">
<metadata>
Created by potrace 1.15, written by Peter Selinger 2001-2017
</metadata>
<g transform="translate(0.000000,1280.000000) scale(0.100000,-0.100000)"
fill="#ffffff" stroke="none">
<path d="M7558 12669 c-9 -5 -58 -59 -109 -119 -90 -108 -115 -134 -83 -85 16
24 16 25 -2 19 -50 -18 -194 -200 -366 -464 -420 -644 -738 -1300 -973 -2005
-174 -520 -273 -975 -332 -1520 -16 -152 -20 -511 -10 -1095 1 -76 -2 -126 -8
-129 -15 -5 -51 92 -175 474 -150 461 -276 775 -476 1180 -216 439 -497 907
-739 1230 -85 113 -127 157 -158 168 -19 7 -19 6 16 -48 l19 -30 -22 25 c-12
14 -60 71 -106 127 -85 103 -118 132 -129 114 -8 -15 19 -86 127 -330 326
-738 471 -1235 539 -1851 20 -172 17 -621 -4 -800 -53 -441 -163 -811 -352
-1190 -163 -326 -340 -583 -622 -901 -212 -241 -318 -388 -417 -584 -268 -531
-212 -1064 159 -1498 114 -134 282 -265 442 -346 389 -196 797 -124 1141 203
76 72 192 211 254 303 19 29 37 51 39 48 7 -7 101 139 170 264 110 198 225
502 293 776 135 545 175 1105 121 1735 -8 96 -15 222 -15 280 0 102 1 104 18
82 10 -12 55 -120 101 -240 45 -119 118 -289 161 -377 76 -155 184 -334 219
-365 10 -8 56 -67 103 -130 98 -131 251 -284 356 -353 93 -62 222 -122 319
-149 102 -28 323 -30 427 -5 341 85 691 377 865 725 98 195 137 377 128 596
-9 220 -53 383 -161 601 -101 203 -199 341 -436 610 -576 655 -871 1302 -962
2105 -16 149 -16 629 0 780 42 369 113 698 234 1070 73 224 153 426 325 815
104 235 105 238 101 268 -2 21 -6 24 -20 16z"/>
<path d="M5575 2863 c-1854 -26 -3696 -539 -4710 -1312 -198 -152 -386 -354
-464 -501 -71 -133 -91 -279 -52 -366 76 -168 299 -274 771 -368 14 -3 3 -3
-25 -1 -27 2 -65 7 -82 11 -29 6 -33 4 -33 -14 0 -18 11 -23 73 -36 110 -24
218 -36 372 -41 77 -3 244 -9 370 -15 127 -5 277 -9 335 -8 l105 2 -95 6 c-52
4 18 5 155 2 612 -10 4251 0 5190 14 231 3 417 3 413 -1 -4 -4 -418 -10 -920
-14 l-913 -8 1500 -1 c1302 -1 1763 3 2270 23 240 9 377 31 418 67 22 18 22
19 -38 13 -55 -5 -53 -3 30 15 349 77 545 197 616 377 31 78 33 250 5 333 -53
156 -142 291 -298 449 -217 220 -501 413 -893 606 -1063 523 -2492 791 -4100
768z m-4392 -2560 c-7 -2 -19 -2 -25 0 -7 3 -2 5 12 5 14 0 19 -2 13 -5z
m8960 0 c-7 -2 -19 -2 -25 0 -7 3 -2 5 12 5 14 0 19 -2 13 -5z m-8880 -10
c-13 -2 -33 -2 -45 0 -13 2 -3 4 22 4 25 0 35 -2 23 -4z m8815 0 c-10 -2 -28
-2 -40 0 -13 2 -5 4 17 4 22 1 32 -1 23 -4z m-8745 -10 c-7 -2 -21 -2 -30 0
-10 3 -4 5 12 5 17 0 24 -2 18 -5z m8665 0 c-10 -2 -26 -2 -35 0 -10 3 -2 5
17 5 19 0 27 -2 18 -5z m-8565 -10 c-13 -2 -35 -2 -50 0 -16 2 -5 4 22 4 28 0
40 -2 28 -4z m8475 0 c-16 -2 -40 -2 -55 0 -16 2 -3 4 27 4 30 0 43 -2 28 -4z
m-8390 -10 c-10 -2 -28 -2 -40 0 -13 2 -5 4 17 4 22 1 32 -1 23 -4z m8280 0
c-15 -2 -42 -2 -60 0 -18 2 -6 4 27 4 33 0 48 -2 33 -4z m-8151 -10 c-20 -2
-52 -2 -70 0 -17 2 0 4 38 4 39 0 53 -2 32 -4z m8011 0 c-21 -2 -55 -2 -75 0
-21 2 -4 4 37 4 41 0 58 -2 38 -4z m-7880 -10 c-15 -2 -42 -2 -60 0 -18 2 -6
4 27 4 33 0 48 -2 33 -4z m7700 0 c-26 -2 -71 -2 -100 0 -29 2 -8 3 47 3 55 0
79 -1 53 -3z m-7495 -10 c-29 -2 -77 -2 -105 0 -29 2 -6 3 52 3 58 0 81 -1 53
-3z m7190 0 c-72 -2 -194 -2 -270 0 -76 1 -16 3 132 3 149 0 211 -2 138 -3z
m-635 -10 c-76 -2 -200 -2 -275 0 -76 1 -14 3 137 3 151 0 213 -2 138 -3z
m190 0 c-10 -2 -26 -2 -35 0 -10 3 -2 5 17 5 19 0 27 -2 18 -5z"/>
<path d="M4235 210 l-440 -5 450 -1 c248 -1 545 2 660 6 l210 6 -220 0 c-121
0 -418 -3 -660 -6z"/>
<path d="M2348 203 c34 -2 88 -2 120 0 31 2 3 3 -63 3 -66 0 -92 -1 -57 -3z"/>
<path d="M2587 203 c18 -2 50 -2 70 0 21 2 7 4 -32 4 -38 0 -55 -2 -38 -4z"/>
<path d="M5308 203 c50 -2 134 -2 185 0 50 1 9 3 -93 3 -102 0 -143 -2 -92 -3z"/>
<path d="M5808 203 c6 -2 18 -2 25 0 6 3 1 5 -13 5 -14 0 -19 -2 -12 -5z"/>
</g>
</svg>
