<svg version="1.0" xmlns="http://www.w3.org/2000/svg"
 width="35" height="35" viewBox="0 0 1280.000000 1251.000000"
 preserveAspectRatio="xMidYMid meet">
<g transform="translate(0.000000,1251.000000) scale(0.100000,-0.100000)"
fill="#ffffff" stroke="none">
<path d="M6393 12498 c-4 -7 -9 -120 -11 -250 -3 -235 -4 -238 -25 -242 -12
-3 -116 -7 -232 -10 -1481 -40 -2966 -539 -4070 -1369 -319 -239 -734 -630
-955 -897 -630 -762 -970 -1544 -1076 -2475 -24 -206 -24 -209 3 -213 19 -3
28 9 59 70 149 300 435 575 754 727 410 194 880 223 1312 81 422 -139 761
-422 951 -797 30 -59 63 -130 73 -158 10 -27 24 -60 32 -73 8 -12 12 -31 9
-42 -3 -11 -1 -20 4 -20 5 0 9 12 9 28 0 37 80 229 136 327 328 571 1012 899
1691 810 560 -74 1052 -406 1284 -867 l39 -77 0 -2713 c1 -2715 -5 -3220 -34
-3413 -41 -267 -144 -476 -298 -602 -185 -151 -439 -175 -673 -63 -185 89
-312 247 -381 475 -25 80 -28 108 -30 250 -1 88 -2 170 -3 182 0 12 -13 36
-27 53 -22 26 -33 31 -62 28 -72 -6 -98 -94 -89 -298 19 -409 235 -739 577
-877 103 -42 270 -76 340 -70 193 18 356 90 496 220 211 196 319 454 354 841
7 81 10 1060 10 3052 l-1 2932 35 69 c122 243 363 497 613 647 315 189 714
276 1081 235 405 -44 753 -209 1033 -488 143 -144 230 -266 309 -436 28 -61
61 -130 73 -155 l21 -45 8 36 c4 20 25 77 47 127 228 526 751 895 1363 961
504 55 1016 -116 1372 -459 60 -58 138 -144 174 -192 61 -82 91 -104 107 -79
3 5 1 29 -5 53 -5 24 -21 116 -35 205 -33 209 -91 443 -164 663 -659 1971
-2726 3456 -5226 3755 -204 24 -410 41 -660 53 l-140 7 -5 240 c-3 132 -9 246
-13 253 -5 8 -33 12 -77 12 -44 0 -72 -4 -77 -12z"/>
</g>
</svg>
